<svg xmlns="http://www.w3.org/2000/svg" width="319" height="377" viewBox="35 -63 319 377"><path fill="#232447" d="M35-39h148.9v98H35z"/><text transform="translate(43 -44)" fill="#232447" font-family="'Source Sans Pro'" font-size="16">content-start</text><path fill="#232447" d="M35 90h148.9v98H35z"/><text transform="translate(43 85)" fill="#232447" font-family="'Source Sans Pro'" font-size="16">content-center</text><path fill="#232447" d="M35 216h148.9v98H35z"/><text transform="translate(43 211)" fill="#232447" font-family="'Source Sans Pro'" font-size="16">content-between</text><path fill="#232447" d="M194.5 90h148.9v98H194.5z"/><text transform="translate(202.5 85)" fill="#232447" font-family="'Source Sans Pro'" font-size="16">content-stretch</text><path fill="#232447" d="M194.5 216h148.9v98H194.5z"/><text transform="translate(202.5 211)" fill="#232447" font-family="'Source Sans Pro'" font-size="16">content-around</text><path fill="#232447" d="M194.5-39h148.9v98H194.5z"/><text transform="translate(202.5 -44)" fill="#232447" font-family="'Source Sans Pro'" font-size="16">content-end</text><path fill="#4e9bd4" d="M38.5-35.5H54V-16H38.5zM58-35.5h30V-16H58zM91.5-35.5h8.5V-16h-8.5zM38.8-12h26.8V7.5H38.8zM69-12h26.8V7.5H69zM38.8 11H58v19.5H38.8zM61.4 11H88v19.5H61.4zM99-12h15.3V7.5H99zM117.8-12H181V7.5h-63.2zM103.2-35.5h22.3V-16h-22.3zM128.7-35.5H181V-16h-52.3zM198.7-11.2h15.5V8.3h-15.5zM218.2-11.2h30V8.3h-30zM251.7-11.2h8.5V8.3h-8.5zM198.9 12.2h26.8v19.5h-26.8zM229.2 12.2H256v19.5h-26.8zM198.9 35.2h19.2v19.5h-19.2zM221.6 35.2h26.6v19.5h-26.6zM259.2 12.2h15.3v19.5h-15.3zM278 12.2h63.2v19.5H278zM263.4-11.2h22.3V8.3h-22.3zM288.9-11.2h52.3V8.3h-52.3zM38.2 106h15.5v19.5H38.2zM57.7 106h30v19.5h-30zM91.2 106h8.5v19.5h-8.5zM38.4 129.5h26.8V149H38.4zM68.7 129.5h26.8V149H68.7zM38.4 152.5h19.2V172H38.4zM61.1 152.5h26.6V172H61.1zM98.7 129.5H114V149H98.7zM117.5 129.5h63.2V149h-63.2zM102.9 106h22.3v19.5h-22.3zM128.4 106h52.3v19.5h-52.3zM38.2 220h15.5v19.5H38.2zM57.7 220h30v19.5h-30zM91.2 220h8.5v19.5h-8.5zM38.4 254.5h26.8V274H38.4zM68.7 254.5h26.8V274H68.7zM38.4 291h19.2v19.5H38.4zM61.1 291h26.6v19.5H61.1zM98.7 254.5H114V274H98.7zM117.5 254.5h63.2V274h-63.2zM102.9 220h22.3v19.5h-22.3zM128.4 220h52.3v19.5h-52.3zM197.7 222.8h15.5v19.5h-15.5zM217.2 222.8h30v19.5h-30zM250.7 222.8h8.5v19.5h-8.5zM197.9 256.2h26.8v19.5h-26.8zM228.2 256.2H255v19.5h-26.8zM197.9 288.8h19.2v19.5h-19.2zM220.6 288.8h26.6v19.5h-26.6zM258.2 256.2h15.3v19.5h-15.3zM277 256.2h63.2v19.5H277zM262.4 222.8h22.3v19.5h-22.3zM287.9 222.8h52.3v19.5h-52.3zM197.7 94h15.5v26.7h-15.5zM217.2 94h30v26.7h-30zM250.7 94h8.5v26.7h-8.5zM197.9 126.2h26.8v26.7h-26.8zM228.2 126.2H255v26.7h-26.8zM197.9 157.8h19.2v26.7h-19.2zM220.6 157.8h26.6v26.7h-26.6zM258.2 126.2h15.3v26.7h-15.3zM277 126.2h63.2v26.7H277zM262.4 94h22.3v26.7h-22.3zM287.9 94h52.3v26.7h-52.3z"/></svg>