<svg xmlns="http://www.w3.org/2000/svg" width="319" height="377" viewBox="35 -63 319 377"><path fill="#89479B" d="M35-39h319V6H35z"/><path fill="#E88024" d="M35-27.5h52.9v22H35zM98.1-27.5H125v22H98.1zM135.8-27.5H232v22h-96.2z"/><path fill="#89479B" d="M35 35h319v45H35z"/><path fill="#E88024" d="M157 46.5h52.9v22H157zM220.1 46.5H247v22h-26.9zM257.8 46.5H354v22h-96.2z"/><text transform="translate(43 -44)" fill="#89479B" font-family="'GothamRounded-Book'" font-size="16">justify-start</text><text transform="translate(43 30)" fill="#89479B" font-family="'GothamRounded-Book'" font-size="16">justify-end</text><path fill="#89479B" d="M35 110h319v45H35z"/><path fill="#E88024" d="M94.4 121.5h52.9v22H94.4zM157.5 121.5h26.9v22h-26.9zM195.2 121.5h96.2v22h-96.2z"/><text transform="translate(43 105)" fill="#89479B" font-family="'GothamRounded-Book'" font-size="16">justify-center</text><path fill="#89479B" d="M35.7 185h319v45h-319z"/><path fill="#E88024" d="M35 196.5h52.9v22H35zM162.2 196.5h26.9v22h-26.9zM257.8 196.5H354v22h-96.2z"/><text transform="translate(43.684 180)" fill="#89479B" font-family="'GothamRounded-Book'" font-size="16">justify-between</text><path fill="#89479B" d="M36 261h319v45H36z"/><path fill="#E88024" d="M58 272.5h52.9v22H58zM158.5 272.5h26.9v22h-26.9zM236.1 272.5h96.2v22h-96.2z"/><text transform="translate(44.025 256)" fill="#89479B" font-family="'GothamRounded-Book'" font-size="16">justify-around</text></svg>