<svg xmlns="http://www.w3.org/2000/svg" width="319" height="85" viewBox="0 0 319 85"><path fill="#E88024" d="M12 7h18v18H12zM12 32h18v18H12zM12 57h18v18H12zM76 7h18v18H76zM76 32h18v18H76zM76 57h18v18H76zM194 57h18v18h-18zM169 57h18v18h-18zM144 57h18v18h-18zM290 57h18v18h-18zM265 57h18v18h-18zM240 57h18v18h-18z"/><path fill="none" stroke="#4470B7" stroke-width="5" stroke-miterlimit="10" d="M45 68V25.888"/><path fill="#4470B7" d="M35.89 27.11h18.22L45 18z"/><path fill="none" stroke="#4470B7" stroke-width="5" stroke-miterlimit="10" d="M109 18v42.112"/><path fill="#4470B7" d="M118.11 58.89H99.89L109 68z"/><g><path fill="none" stroke="#4470B7" stroke-width="5" stroke-miterlimit="10" d="M153 43h42.113"/><path fill="#4470B7" d="M193.892 33.89v18.22l9.11-9.11z"/></g><g><path fill="none" stroke="#4470B7" stroke-width="5" stroke-miterlimit="10" d="M298.998 43h-42.112"/><path fill="#4470B7" d="M258.107 52.11V33.89L248.997 43z"/></g></svg>