<svg xmlns="http://www.w3.org/2000/svg" width="319" height="377" viewBox="0 0 319 377"><path fill="#89479B" d="M0 24h148.895v98H0z"/><path fill="#E88024" d="M0 24h29.547v48.5H0zM39.12 24h29.546v59.5H39.12zM79.355 24h29.547v29.75H79.355zM119.347 24h29.547v48.5h-29.547z"/><text transform="translate(8 19)" fill="#89479B" font-family="'GothamRounded-Book'" font-size="16">items-start</text><path fill="#89479B" d="M0 155h148.895v98H0z"/><path fill="#E88024" d="M0 178.28h29.547v48.5H0zM39.12 172.78h29.546v59.5H39.12zM79.355 187.656h29.547v29.75H79.355zM119.347 178.28h29.547v48.5h-29.547z"/><text transform="translate(8 150)" fill="#89479B" font-family="'GothamRounded-Book'" font-size="16">items-center</text><path fill="#89479B" d="M0 279h308.395v98H0z"/><path fill="#E88024" d="M0 287.406h64v68.875H0zM70.12 293.562h64V337h-64zM142.273 286.406H221V350h-78.727zM229.04 290.047h78.726V367H229.04z"/><text transform="translate(8 274)" fill="#89479B" font-family="'GothamRounded-Book'" font-size="16">items-baseline</text><path fill="#89479B" d="M159.5 155h148.895v98H159.5z"/><path fill="#E88024" d="M159.5 154.03h29.547V253H159.5zM198.62 155h29.546v98H198.62zM238.855 155h29.547v98h-29.547zM278.848 155h29.547v98h-29.547z"/><text transform="translate(167.5 150)" fill="#89479B" font-family="'GothamRounded-Book'" font-size="16">items-stretch</text><path fill="#89479B" d="M159.5 24h148.895v98H159.5z"/><path fill="#E88024" d="M159.5 73.5h29.547V122H159.5zM198.62 62.5h29.546V122H198.62zM238.855 92.25h29.547V122h-29.547zM278.848 73.5h29.547V122h-29.547z"/><text transform="translate(167.5 19)" fill="#89479B" font-family="'GothamRounded-Book'" font-size="16">items-end</text><text transform="translate(5 308)" font-family="'GothamRounded-Book'" font-size="13">text text</text><text transform="translate(243 308)" font-family="'GothamRounded-Book'" font-size="13">text text</text><text transform="translate(81.666 308.73)" font-family="'GothamRounded-Book'" font-size="10">text text</text><text transform="translate(149.197 307.272)" font-family="'GothamRounded-Book'" font-size="16">text text</text><path fill="none" stroke="#F7EC1D" stroke-miterlimit="10" d="M0 308h308.395"/></svg>