<svg xmlns="http://www.w3.org/2000/svg" width="319" height="112" viewBox="0 0 319 112"><path fill="#232447" d="M0 0h319v112H0z"/><path fill="#4e9bd4" d="M24 10h42.67v22H24zM76.873 10h67.713v22H76.873zM154.79 10h42.67v22h-42.67zM207.662 10H293v22h-85.338zM24 74.5h31.538v22H24zM66.67 74.5h63.075v22H66.67zM138.557 74.5h42.67v22h-42.67z"/><path fill="none" stroke="#FFF" stroke-miterlimit="10" d="M296.276 17c1.04 0 2.015.23 2.916.623"/><path fill="none" stroke="#FFF" stroke-miterlimit="10" stroke-dasharray="6.0678,6.0678" d="M303.817 21.466c2.09 2.657 3.208 5.514 3.208 5.514s25.405 34.477-170.51 31.755c0 0-127.033-11.428-127.605 17.59"/><path fill="none" stroke="#FFF" stroke-miterlimit="10" d="M9.273 79.323c.17.68.404 1.376.702 2.094l.678.405"/><path fill="#FFF" d="M6.854 85.066l9.96.434-4.603-8.845z"/></svg>