<svg xmlns="http://www.w3.org/2000/svg" xmlns:xlink="http://www.w3.org/1999/xlink" viewBox="0 0 640 640" width="640" height="640"><defs><path d="M619.84 3.17c8.81.03 15.93 7.19 15.91 16-.34 123.54-1.3 478.19-1.64 601.73-.02 8.81-7.18 15.93-15.99 15.91-122.41-.34-473.68-1.29-596.09-1.62-8.81-.03-15.93-7.19-15.91-16C6.46 495.65 7.42 141 7.75 17.46c.03-8.81 7.19-15.93 16-15.91 122.41.34 473.68 1.29 596.09 1.62z" id="a"/><text id="b" x="116.56" y="147.91" font-size="31" font-family="Source Sans Pro" letter-spacing="0" alignment-baseline="before-edge" transform="translate(-81.717 -131.324)" style="line-height:100%" dominant-baseline="text-before-edge"><tspan x="116.56" dy="0em" alignment-baseline="before-edge" dominant-baseline="text-before-edge">QList</tspan></text><path d="M585.04 149.8c7.9 0 14.32 6.41 14.32 14.32v202.84c0 7.91-6.42 14.32-14.32 14.32H49.16c-7.91 0-14.32-6.41-14.32-14.32V164.12c0-7.91 6.41-14.32 14.32-14.32h535.88z" id="c"/><text id="d" x="129.1" y="183.44" font-size="17" font-family="Source Sans Pro" letter-spacing="0" alignment-baseline="before-edge" transform="translate(-66.402 -17.3)" style="line-height:100%" dominant-baseline="text-before-edge"><tspan x="129.1" dy="0em" alignment-baseline="before-edge" dominant-baseline="text-before-edge">QItem</tspan></text><path d="M162.51 204.49c1.44 0 2.6 1.16 2.6 2.6v84.67c0 1.44-1.16 2.6-2.6 2.6H65.3c-1.44 0-2.6-1.16-2.6-2.6v-84.67c0-1.44 1.16-2.6 2.6-2.6h97.21z" id="e"/><text id="f" x="145.82" y="233.61" font-size="14" font-family="Source Sans Pro" letter-spacing="0" alignment-baseline="before-edge" transform="translate(-63.296 -20.648)" style="line-height:100%" dominant-baseline="text-before-edge"><tspan x="145.82" dy="0em" alignment-baseline="before-edge" dominant-baseline="text-before-edge">QItemSide</tspan></text><path d="M450.45 204.49c3.93 0 7.11 3.18 7.11 7.11v149.54c0 3.93-3.18 7.11-7.11 7.11H184.8c-3.93 0-7.11-3.18-7.11-7.11V211.6c0-3.93 3.18-7.11 7.11-7.11h265.65z" id="g"/><path d="M569.43 204.49c1.44 0 2.6 1.16 2.6 2.6v126.27c0 1.44-1.16 2.6-2.6 2.6h-97.22c-1.43 0-2.6-1.16-2.6-2.6V207.09c0-1.44 1.17-2.6 2.6-2.6h97.22z" id="h"/><path d="M150.57 242.8c1.03 0 1.86.83 1.86 1.85v36c0 1.03-.83 1.86-1.86 1.86H81.11c-1.03 0-1.86-.83-1.86-1.86v-36c0-1.02.83-1.85 1.86-1.85h69.46z" id="i"/><text id="j" x="152.79" y="267.05" font-size="12" font-family="Source Sans Pro" letter-spacing="0" alignment-baseline="before-edge" transform="translate(-63.716 -12.398)" style="line-height:100%" dominant-baseline="text-before-edge"><tspan x="152.79" dy="0em" alignment-baseline="before-edge" dominant-baseline="text-before-edge">QItemTile</tspan></text><path d="M432.27 252.71c1.36 0 2.46 1.1 2.46 2.46v34.8c0 1.36-1.1 2.46-2.46 2.46H202.98c-1.36 0-2.46-1.1-2.46-2.46v-34.8c0-1.36 1.1-2.46 2.46-2.46h229.29z" id="k"/><path d="M433.17 307.18c1.36 0 2.46 1.1 2.46 2.46v34.8c0 1.36-1.1 2.46-2.46 2.46H203.88c-1.36 0-2.46-1.1-2.46-2.46v-34.8c0-1.36 1.1-2.46 2.46-2.46h229.29z" id="l"/><path d="M555.39 241.68c1.03 0 1.86.84 1.86 1.86v36c0 1.03-.83 1.86-1.86 1.86h-69.46c-1.02 0-1.86-.83-1.86-1.86v-36c0-1.02.84-1.86 1.86-1.86h69.46z" id="m"/><path d="M555.39 287.33c1.03 0 1.86.83 1.86 1.86v35.99c0 1.03-.83 1.86-1.86 1.86h-69.46c-1.02 0-1.86-.83-1.86-1.86v-35.99c0-1.03.84-1.86 1.86-1.86h69.46z" id="n"/><path d="M597.84 402.01c1.43 0 2.59 1.16 2.59 2.58v36.64c0 1.42-1.16 2.58-2.59 2.58H38.5c-1.43 0-2.59-1.16-2.59-2.58v-36.64c0-1.42 1.16-2.58 2.59-2.58h559.34z" id="o"/><path d="M597.84 497.67a2.59 2.59 0 0 1 2.59 2.59v36.63a2.59 2.59 0 0 1-2.59 2.59H38.5a2.59 2.59 0 0 1-2.59-2.59v-36.63a2.59 2.59 0 0 1 2.59-2.59h559.34z" id="p"/><text id="q" x="147.21" y="538.07" font-size="32" font-family="Alef" letter-spacing="0" alignment-baseline="before-edge" transform="rotate(90.172 236.163 644.45)" style="line-height:100%" dominant-baseline="text-before-edge"><tspan x="147.21" dy="0em" alignment-baseline="before-edge" dominant-baseline="text-before-edge">.....</tspan></text><path d="M596.24 81.33c1.72 0 3.12 1.39 3.12 3.11v44.15c0 1.72-1.4 3.12-3.12 3.12H37.96c-1.72 0-3.12-1.4-3.12-3.12V84.44c0-1.72 1.4-3.11 3.12-3.11h558.28z" id="r"/><text id="s" x="116.56" y="147.91" font-size="17" font-family="Source Sans Pro" letter-spacing="0" alignment-baseline="before-edge" transform="translate(-60.548 -52.905)" style="line-height:100%" dominant-baseline="text-before-edge"><tspan x="116.56" dy="0em" alignment-baseline="before-edge" dominant-baseline="text-before-edge">QListHeader</tspan></text><path d="M598.36 453.97c1.14 0 2.07.93 2.07 2.07v29.3c0 1.15-.93 2.07-2.07 2.07H37.98c-1.14 0-2.07-.92-2.07-2.07v-29.3c0-1.14.93-2.07 2.07-2.07h560.38z" id="t"/><text id="u" x="129.1" y="183.44" font-size="17" font-family="Source Sans Pro" letter-spacing="0" alignment-baseline="before-edge" transform="translate(-66.402 324.631)" style="line-height:100%" dominant-baseline="text-before-edge"><tspan x="129.1" dy="0em" alignment-baseline="before-edge" dominant-baseline="text-before-edge">QItem</tspan></text><text id="v" x="129.1" y="183.44" font-size="17" font-family="Source Sans Pro" letter-spacing="0" alignment-baseline="before-edge" transform="translate(-66.402 228.967)" style="line-height:100%" dominant-baseline="text-before-edge"><tspan x="129.1" dy="0em" alignment-baseline="before-edge" dominant-baseline="text-before-edge">QItem</tspan></text><text id="w" x="145.82" y="233.61" font-size="14" font-family="Source Sans Pro" letter-spacing="0" alignment-baseline="before-edge" transform="translate(343.968 -20.648)" style="line-height:100%" dominant-baseline="text-before-edge"><tspan x="145.82" dy="0em" alignment-baseline="before-edge" dominant-baseline="text-before-edge">QItemSide</tspan></text><text id="x" x="152.79" y="267.05" font-size="12" font-family="Source Sans Pro" letter-spacing="0" alignment-baseline="before-edge" transform="translate(343.344 -12.398)" style="line-height:100%" dominant-baseline="text-before-edge"><tspan x="152.79" dy="0em" alignment-baseline="before-edge" dominant-baseline="text-before-edge">QItemTile</tspan></text><text id="y" x="152.79" y="267.05" font-size="12" font-family="Source Sans Pro" letter-spacing="0" alignment-baseline="before-edge" transform="translate(343.344 32.384)" style="line-height:100%" dominant-baseline="text-before-edge"><tspan x="152.79" dy="0em" alignment-baseline="before-edge" dominant-baseline="text-before-edge">QItemTile</tspan></text><text id="z" x="152.79" y="267.05" font-size="12" font-family="Source Sans Pro" letter-spacing="0" alignment-baseline="before-edge" transform="translate(140.306 -4.648)" style="line-height:100%" dominant-baseline="text-before-edge"><tspan x="152.79" dy="0em" alignment-baseline="before-edge" dominant-baseline="text-before-edge">QItemTile</tspan></text><text id="A" x="152.79" y="267.05" font-size="12" font-family="Source Sans Pro" letter-spacing="0" alignment-baseline="before-edge" transform="translate(139.78 49.925)" style="line-height:100%" dominant-baseline="text-before-edge"><tspan x="152.79" dy="0em" alignment-baseline="before-edge" dominant-baseline="text-before-edge">QItemTile</tspan></text><text id="B" x="145.82" y="233.61" font-size="14" font-family="Source Sans Pro" letter-spacing="0" alignment-baseline="before-edge" transform="translate(140.426 -16.236)" style="line-height:100%" dominant-baseline="text-before-edge"><tspan x="145.82" dy="0em" alignment-baseline="before-edge" dominant-baseline="text-before-edge">QItemMain</tspan></text><text id="C" x="129.1" y="183.44" font-size="15" font-family="Source Sans Pro" letter-spacing="0" alignment-baseline="before-edge" transform="translate(-66.402 277.749)" style="line-height:100%" dominant-baseline="text-before-edge"><tspan x="129.1" dy="0em" alignment-baseline="before-edge" dominant-baseline="text-before-edge">QItemSeparator</tspan></text></defs><use xlink:href="#a" opacity=".43" fill="#027be3"/><use xlink:href="#b" fill="#fff"/><use xlink:href="#c" opacity=".46" fill="#027be3"/><use xlink:href="#d" fill="#fff"/><use xlink:href="#e" opacity=".5" fill="#027be3"/><use xlink:href="#f" fill="#fff"/><use xlink:href="#g" opacity=".5" fill="#027be3"/><use xlink:href="#h" opacity=".5" fill="#027be3"/><use xlink:href="#i" fill="#027be3"/><use xlink:href="#j" fill="#fff"/><use xlink:href="#k" fill="#027be3"/><use xlink:href="#l" fill="#027be3"/><use xlink:href="#m" fill="#027be3"/><use xlink:href="#n" fill="#027be3"/><use xlink:href="#o" opacity=".46" fill="#027be3"/><use xlink:href="#p" opacity=".46" fill="#027be3"/><use xlink:href="#q" opacity=".5" fill="#027be3"/><use xlink:href="#r" opacity=".46" fill="#027be3"/><use xlink:href="#s" fill="#fff"/><use xlink:href="#t" opacity=".46" fill="#027be3"/><use xlink:href="#u" fill="#fff"/><use xlink:href="#v" fill="#fff"/><use xlink:href="#w" fill="#fff"/><use xlink:href="#x" fill="#fff"/><use xlink:href="#y" fill="#fff"/><use xlink:href="#z" fill="#fff"/><use xlink:href="#A" fill="#fff"/><use xlink:href="#B" fill="#fff"/><use xlink:href="#C" fill="#fff"/></svg>